<?xml version="1.0" standalone="no"?>
<!DOCTYPE svg PUBLIC "-//W3C//DTD SVG 20010904//EN"
 "http://www.w3.org/TR/2001/REC-SVG-20010904/DTD/svg10.dtd">
<svg version="1.0" xmlns="http://www.w3.org/2000/svg"
 width="180.000000pt" height="180.000000pt" viewBox="0 0 180.000000 180.000000"
 preserveAspectRatio="xMidYMid meet">
<metadata>
Created by potrace 1.16, written by Peter Selinger 2001-2019
</metadata>
<g transform="translate(0.000000,180.000000) scale(0.100000,-0.100000)"
fill="#000000" stroke="none">
<path d="M740 1015 c0 -33 -1 -34 -29 -29 -35 7 -51 -15 -51 -71 0 -58 14 -75
60 -73 l40 1 0 104 c0 62 -4 103 -10 103 -5 0 -10 -16 -10 -35z m-5 -100 c0
-47 -2 -50 -25 -50 -22 0 -25 5 -28 39 -4 52 3 68 30 64 20 -3 23 -9 23 -53z"/>
<path d="M1120 948 l0 -103 40 -3 c46 -3 60 14 60 77 0 47 -23 75 -57 68 -20
-4 -23 0 -23 29 0 19 -4 34 -10 34 -6 0 -10 -41 -10 -102z m75 -33 c0 -47 -2
-50 -27 -53 -27 -3 -28 -2 -28 46 0 55 5 64 35 60 17 -3 20 -10 20 -53z"/>
<path d="M356 1018 c-10 -14 -16 -44 -16 -80 0 -67 22 -98 68 -98 44 0 64 20
60 60 -2 30 -7 35 -30 38 -16 2 -28 -1 -28 -7 0 -6 6 -11 14 -11 20 0 29 -16
21 -40 -4 -14 -15 -20 -35 -20 -36 0 -50 23 -50 80 0 23 5 50 10 61 14 26 54
24 73 -3 15 -22 16 -22 16 -2 1 29 -18 44 -55 44 -23 0 -38 -7 -48 -22z"/>
<path d="M600 1030 c0 -5 5 -10 10 -10 6 0 10 5 10 10 0 6 -4 10 -10 10 -5 0
-10 -4 -10 -10z"/>
<path d="M833 1032 c-30 -19 -43 -114 -22 -155 15 -27 28 -37 53 -37 11 0 28
-7 38 -17 22 -19 36 -10 18 12 -10 12 -10 18 1 31 20 25 16 130 -6 154 -18 20
-60 26 -82 12z m65 -24 c12 -12 17 -104 6 -132 -7 -17 -59 -22 -68 -7 -13 20
-17 98 -7 124 11 29 47 37 69 15z"/>
<path d="M510 913 c0 -42 4 -73 10 -73 6 0 10 27 10 61 0 52 3 62 20 66 30 8
24 22 -10 21 l-30 -1 0 -74z"/>
<path d="M600 915 c0 -43 4 -75 10 -75 6 0 10 32 10 75 0 43 -4 75 -10 75 -6
0 -10 -32 -10 -75z"/>
<path d="M982 918 l3 -73 43 0 42 -1 0 75 c0 87 -17 87 -22 1 -3 -48 -6 -55
-25 -58 -22 -3 -23 0 -23 57 0 33 -5 63 -10 66 -7 5 -10 -17 -8 -67z"/>
<path d="M1271 976 c-22 -26 -25 -83 -7 -111 14 -21 24 -26 48 -23 17 2 33 9
36 17 3 10 0 11 -13 3 -24 -13 -52 -4 -58 18 -7 26 0 30 45 30 30 0 38 4 38
18 0 48 -62 81 -89 48z m63 -23 c8 -21 -8 -31 -39 -25 -21 3 -23 7 -14 23 12
23 45 25 53 2z"/>
</g>
</svg>
